<svg width="11" height="6" viewBox="0 0 11 6" fill="none" xmlns="http://www.w3.org/2000/svg">
    <g clip-path="url(#clip0)">
        <path d="M5.77094 3.10764C6.88433 2.20549 7.97566 1.75887 9.08905 0.867861C9.32055 0.689658 9.58511 0.544869 9.84968 0.411218C10.1032 0.288704 10.3237 0.433493 10.3568 0.667383C10.4009 0.968099 10.456 1.29109 10.2024 1.56953C9.32055 2.51623 8.35047 3.35155 7.28118 4.06436C6.9174 4.30939 6.57566 4.58783 6.24495 4.86627C6.01346 5.04447 5.67173 5.10016 5.41818 4.95537C5.32999 4.91082 5.25283 4.84399 5.16464 4.78831C3.79771 3.74137 2.41976 2.69443 1.05283 1.64749C0.953616 1.56953 0.865428 1.50271 0.766215 1.42474C0.56779 1.25768 0.523696 1.09061 0.722121 0.856723C1.09692 0.422355 1.19614 0.377805 1.65913 0.711933C2.17724 1.09061 2.68433 1.01376 3.15834 1.43699C3.74259 1.96046 4.31582 2.48393 5.07645 2.7401C5.29692 2.81806 5.48433 2.95171 5.77094 3.10764Z" fill="#231F20"/>
    </g>
    <defs>
        <clipPath id="clip0">
            <rect width="4.66667" height="9.8" fill="white" transform="translate(10.4004 0.366667) rotate(90)"/>
        </clipPath>
    </defs>
</svg>